# xmcd
# 
# Track frame offsets:
#     150
#     44945
#     106410
#     180091
# 
# Disc length: 3604
# 
# Revision: 1
# Processed by: cddbd v1.5.2PL0 Copyright (c) Steve Scherf et al.
# Submitted via: BonkEnc v1.0.8
# 
DISCID=2e0e1204
DTITLE=Rumors Ambient Project - 究極の眠れるCD
DYEAR=2002
DGENRE=General Easy Listening
TTITLE0=深き眠りへ...Part ?
TTITLE1=深き眠りへ...Part ?
TTITLE2=深き眠りへ...Part ?
TTITLE3=深き眠りへ...Part ?
EXTD=YEAR: 2002
EXTT0=
EXTT1=
EXTT2=
EXTT3=
PLAYORDER=
